# xmcd CD database file
#
# Track frame offsets:
#	150
#	24110
#	48523
#	70686
#	89493
#	114547
#	133436
#	155237
#	177693
#	199933
#	220759
#	240109
#	260099
#	277685
#	292959
#
# Disc length: 4111 seconds
#
# Revision: 0
# Processed by: cddbd v1.5.1PL0 Copyright (c) Steve Scherf et al.
# Submitted via: CDex 1.51
#
DISCID=de100d0f
DTITLE=Proper Magazine Music Distribution - Various Artists - Proper Music Jazz Sampler 2004
DYEAR=2004
DGENRE=Jazz
TTITLE0=Colin Steele - The London Heist , 2003
TTITLE1=Tony Kofi Quartet - Boo Boo's Birthday (T. Monk), 2004
TTITLE2=Alex Skolnik Trio - Dtroit Rock City , 2004
TTITLE3=Abram Wilson - Monk , 2004
TTITLE4=David Murray and The GWO-KA Masters Feat. Pharoah Sanders - Gwotet , 2004
TTITLE5=Joel Harrison - Shandy Grove ( Traditional) , 2004
TTITLE6=Omar Sosa - Nuevo Manto , 2004
TTITLE7=Tineke Postma Quartet - Joe's Tune , 2003
TTITLE8=Kathleen Willison - Look For The Love In Your Heart , 2004
TTITLE9=Joey Calderazzo - Haiku , 2004
TTITLE10=Jessica Williams - Tutu's Promise , 2004
TTITLE11=George Duke - Let's Roll , 2003
TTITLE12=John Novello - Treshold , 2004
TTITLE13=Fred Hersch - The Chase , 2004
TTITLE14=Maria Madalena - Ehid Querida , 2000
EXTD=YEAR: 2004
EXTT0=
EXTT1=
EXTT2=
EXTT3=
EXTT4=
EXTT5=
EXTT6=
EXTT7=
EXTT8=
EXTT9=
EXTT10=
EXTT11=
EXTT12=
EXTT13=
EXTT14=
PLAYORDER=
